PathFileType	4	(X/Y/Z)	Patient4_TMGait_0pt2_03_left_15.trc.trc
DataRate	CameraRate	NumFrames	NumMarkers	Units	OrigDataRate	OrigDataStartFrame	OrigNumFrames
43.613707165109	43.613707165109	4	33	mm	43.613707165109	1	       141
Frame#	Time	Sacral			L.Shoulder			Chest			R.Shoulder			Neck			R.ASIS			L.ASIS			R.Thigh.Superior			R.Thigh.Lateral			R.Thigh.Inferior			R.Patella			L.Thigh.Superior			L.Thigh.Lateral			L.Thigh.Inferior			L.Patella			L.Shank.Superior			L.Shank.Lateral			L.Shank.Inferior			R.Shank.Superior			R.Shank.Lateral			R.Shank.Inferior			R.Heel			R.Midfoot.Superior			R.Midfoot.Lateral			R.Toe			L.Heel			L.Midfoot.Lateral			L.Midfoot.Superior			L.Toe			L.Elbow			L.Wrist			R.Elbow			R.Wrist			
		X1	Y1	Z1	X2	Y2	Z2	X3	Y3	Z3	X4	Y4	Z4	X5	Y5	Z5	X6	Y6	Z6	X7	Y7	Z7	X8	Y8	Z8	X9	Y9	Z9	X10	Y10	Z10	X11	Y11	Z11	X12	Y12	Z12	X13	Y13	Z13	X14	Y14	Z14	X15	Y15	Z15	X16	Y16	Z16	X17	Y17	Z17	X18	Y18	Z18	X19	Y19	Z19	X20	Y20	Z20	X21	Y21	Z21	X22	Y22	Z22	X23	Y23	Z23	X24	Y24	Z24	X25	Y25	Z25	X26	Y26	Z26	X27	Y27	Z27	X28	Y28	Z28	X29	Y29	Z29	X30	Y30	Z30	X31	Y31	Z31	X32	Y32	Z32	X33	Y33	Z33	

1	31.010000000000	861.797804037785	993.363769250559	596.793242908196	1052.327560993522	1415.208422746587	405.427473779467	1153.303348558503	1344.657356157814	566.154243947859	1076.469248419630	1427.358542448827	738.773571682406	1046.737919839744	1482.209084704220	560.362295365980	1098.372231881484	927.856368595811	703.771046511043	1069.909483728963	954.033891100520	431.975655152421	1157.795473615158	737.122892662422	656.736747311207	1092.125354257434	615.727519062316	711.139154178641	1168.439600308081	576.027090910791	622.029351949008	1178.301003088168	481.204973730705	622.919484977034	1159.379738464196	772.931211869621	454.946994108615	1111.896452395889	640.989626585581	369.689379351163	1219.927124554423	584.341553124426	436.691397500438	1231.482576684624	494.033926126233	423.486167260889	1161.819207916774	430.138694304331	408.656315460814	1019.876920711441	397.911371773801	352.357425494574	1000.153975946786	264.466565478463	395.345079207209	1136.680071689756	392.175317178713	627.234856742023	1058.783743348848	294.724675007279	691.826542333144	1079.629760939868	199.296426955230	621.973896873011	924.497293110562	45.160828091197	602.472123693933	1098.479565507565	96.221282170735	625.899104101759	1012.503143869926	38.055681538020	670.988437690156	1219.978745287084	42.217548348514	646.490008569268	806.812500794331	215.219496700887	424.563180819159	859.711941181879	163.660986232359	344.092204655739	965.418138873499	158.778815845096	365.423337365147	1030.260366506248	38.620778559219	336.232261360088	1014.490257202847	1056.999707065133	303.767097157423	1073.442477575594	803.125654595046	305.586997982314	1057.469034463288	1095.621392968398	899.277924894444	1252.467272968919	923.954336268002	885.889109927431	
2	31.032928571429	860.634723939517	988.716929918911	601.584574723791	1047.476792524492	1411.453650708108	407.531808865510	1150.944986397633	1340.819805939844	566.650294625886	1076.736851294082	1423.035020049432	740.613658728752	1043.743067216026	1478.414006645144	562.657182388728	1099.046552379275	924.560488526935	704.911293400313	1066.723169717811	950.792381854887	433.584468802787	1159.801922812035	734.756150370144	655.812335956123	1096.516035740553	612.459398559321	710.223258704419	1171.841629870193	573.995407435879	619.623164433736	1182.309410801616	478.294440524809	619.924943114830	1159.810697251652	773.339389676883	457.901513970213	1115.464814893133	639.973252901450	373.143732702738	1224.938555875619	586.312678785481	441.196338248243	1238.758205025597	496.147178385022	427.727157859017	1170.277403669238	430.966430218501	412.172486321484	1028.450096875717	396.134683253877	356.823828305085	1012.232462242700	261.927564579310	398.614401865629	1138.989349457561	389.312425485360	625.043170130686	1059.843364822081	293.349047109972	690.447519235989	1077.997853830352	197.687241035303	620.782659460410	920.093163830032	45.253816064211	602.515094601276	1094.162569964437	96.136643519909	625.601027278021	1008.093527356008	38.116031771256	670.962641049117	1215.570464014113	41.899037242814	646.528074462187	820.533066656050	205.429120568074	429.053892959787	874.202118460789	158.914634012987	346.702649339334	979.929279831677	157.659832349932	367.301429379125	1048.919475312866	41.718092808584	333.644499133841	996.486249671654	1056.115917812078	305.343194400913	1035.820162833153	801.193885306468	306.589188571373	1073.915341352497	1090.726440823932	899.137753446064	1277.356025916446	931.936865693762	880.954728910672	
3	31.055857142857	859.417325867929	984.362269170093	606.489587383526	1042.306500052186	1408.022667254826	409.688359532433	1148.428927445122	1337.271291997167	567.041134075671	1077.053774568482	1418.956851346099	742.412139489356	1040.587307646184	1474.890161976128	564.996910729657	1099.666329474468	921.482704950881	705.909244421962	1063.266412847884	947.802055939985	435.115395223533	1161.528925378222	732.449578557162	654.856282258515	1100.487980815454	609.345144200091	709.335240371409	1174.734336285646	572.014916286624	617.242503356247	1185.722702726707	475.488319395385	616.988195198757	1159.846933302827	773.844843412906	460.697169005168	1118.436288786868	639.064932573704	376.529026754157	1229.260950111822	588.289571452355	445.491121592670	1245.346247059839	498.410449911637	431.802107502343	1178.397887868246	431.869935306077	415.533464948917	1037.069174924599	393.629321875475	361.122401139393	1025.196323424717	258.727978034288	401.728663856071	1140.774045844577	386.564190513652	622.910492035690	1060.467144449514	292.018242217172	689.129605844334	1076.032782112528	196.137783371687	619.640177235335	915.477622034033	45.326154668487	602.570050941393	1089.632531834445	96.051117889137	625.315220464941	1003.476968825397	38.164319879342	670.957555074812	1210.952688017071	41.600324251934	646.558727466833	835.842217656874	193.925690155320	433.336650877854	890.393246496567	152.753413316564	349.184226383202	995.922584224627	155.786703323031	369.108166099111	1069.580748189334	44.694502866104	331.164286615716	977.766037825253	1055.906011305673	307.043201797754	997.828174819221	800.118509399848	308.284652977702	1091.103651647183	1086.362562139624	898.650696438851	1303.104571458219	941.551355328344	875.327736470393	
4	31.078785714286	858.162350487313	980.639149233479	611.345480946959	1036.898279936965	1405.219963123813	411.827139206691	1145.795422041915	1334.309395172931	567.260361405722	1077.430825340195	1415.429520565360	744.064247759548	1037.332329723782	1471.922957509514	567.294009740103	1100.171649161606	918.861861607080	706.659306455624	1059.562180028785	945.325288703149	436.467831346213	1162.739233327367	730.339133858882	653.886132360066	1103.648826282952	606.601256979312	708.530273007834	1176.726466441920	570.202148788533	615.005044753953	1188.085660048079	472.966938709627	614.268955944223	1159.292853652192	774.480103597819	463.141048121332	1120.393124367602	638.370708544031	379.650569687255	1232.383212094035	590.205762296164	449.284067566597	1250.647319590380	500.821446211651	435.443471379599	1185.664002252852	432.887336745856	418.514936093885	1045.406681602909	390.273793623814	364.964430015225	1038.853853017768	254.851214458812	404.474630364942	1141.685717376913	384.112104014022	620.962812363483	1060.404748583085	290.816147842351	687.962996827704	1073.644496449348	194.749742698447	618.620136471471	910.742312094952	45.364567756056	602.638643149763	1084.973767173341	95.967150236470	625.058899542832	998.744490965687	38.192825032543	670.979584938664	1206.215534125645	41.343536901723	646.577100933476	852.758865258901	180.699730799016	437.121322966058	908.319107503715	145.024977577745	351.367836606265	1013.341226550233	153.050927918441	370.725677159095	1092.160628763157	47.453521058563	328.962739758528	958.842744785674	1056.657308704873	308.892124669146	960.892248944898	800.286471076277	310.912642511374	1108.644539883827	1083.007005236658	897.676279278763	1328.940516573125	953.193942247931	868.916871584641	
